<svg width="232" height="241" viewBox="0 0 232 241" fill="none" xmlns="http://www.w3.org/2000/svg">
<path d="M113.016 103.983V69.0776" stroke="#263238" stroke-linecap="round" stroke-linejoin="round"/>
<path d="M134.942 106.038L134.896 95.5928L137.081 102.313C137.081 102.313 135.071 105.068 134.942 106.038Z" fill="#263238" stroke="#263238" stroke-linecap="round" stroke-linejoin="round"/>
<path d="M137.09 102.318C137.09 102.318 134.05 105.236 135.242 107.06C136.434 108.884 138.869 107.18 143.785 107.18C148.7 107.18 152.563 110.708 152.563 110.708V93.6824C152.563 93.6824 152.327 91.6184 149.172 90.3992C146.016 89.18 138.167 90.1592 136.762 87.8456C135.358 85.532 136.3 81.644 136.3 81.644C136.3 81.644 133.727 86.996 134.66 91.1288C135.593 95.2616 137.09 102.318 137.09 102.318Z" fill="white" stroke="#263238" stroke-linecap="round" stroke-linejoin="round"/>
<path d="M113.099 70.2632C114.519 71.6709 116.355 72.5401 118.31 72.7304C126.164 73.6616 127.638 73.0136 131.38 73.8632C135.122 74.7128 137.113 78.1208 137.113 78.1208V102.318C137.113 102.318 135.945 98.6696 131.029 98.18C126.113 97.6904 121.669 98.06 117.686 97.8152C113.704 97.5704 113.122 96.8552 113.122 96.8552L113.099 70.2632Z" fill="white" stroke="#263238" stroke-linecap="round" stroke-linejoin="round"/>
<path d="M136.582 96.0775V88.7144C136.346 88.364 136.097 88.0135 135.834 87.6775L134.235 85.7096C133.888 85.2637 133.565 84.7973 133.27 84.3128C132.983 83.8249 132.837 83.2618 132.849 82.6903C132.837 82.3812 132.936 82.0785 133.126 81.8408C133.231 81.7311 133.365 81.6565 133.51 81.6266C133.656 81.5966 133.807 81.6127 133.944 81.6728C134.259 81.7493 134.534 81.9464 134.716 82.2247C134.896 82.5328 135.014 82.8758 135.062 83.2328C135.13 83.6791 135.169 84.1297 135.178 84.5816L136.564 84.8263V80.8952C136.457 80.7656 136.337 80.636 136.212 80.5112C135.717 80.0466 135.137 79.6893 134.508 79.46V77.6791L133.584 77.3719V79.1575C132.429 78.8695 131.505 78.9623 130.812 79.4359C130.119 79.9095 129.775 80.7752 129.781 82.0328C129.773 82.6387 129.86 83.2419 130.04 83.8184C130.212 84.3511 130.448 84.8591 130.742 85.3303C131.053 85.8279 131.387 86.3085 131.745 86.7703L133.385 88.7719C133.854 89.3288 134.271 89.9317 134.628 90.5719C134.934 91.139 135.094 91.7792 135.09 92.4296C135.103 92.7299 135.026 93.0269 134.868 93.2791C134.72 93.4999 134.448 93.5431 134.046 93.4088C133.709 93.3038 133.413 93.0903 133.2 92.7991C132.957 92.4538 132.79 92.0573 132.711 91.6375C132.588 91.0667 132.52 90.4847 132.507 89.9L129.791 89.4872C129.777 90.913 130.143 92.315 130.849 93.5384C131.562 94.6282 132.606 95.4378 133.815 95.8375V97.7L134.739 98.0024V96.1208C135.345 96.2871 135.984 96.2721 136.582 96.0775Z" fill="#A8DADC"/>
<path d="M188.317 227.18L152.572 168.606L142.75 173.401L113.015 103.983L78.0929 167.343L72.6367 158.761L31.2415 227.18H188.317Z" fill="#A8DADC"/>
<path d="M29.3196 229.522L72.6367 158.761L78.0929 167.343L113.015 103.983L142.75 173.401L152.572 168.606L190.049 230.022" stroke="#263238" stroke-linecap="round" stroke-linejoin="round"/>
<path d="M72.6367 158.761L77.0165 171.236L74.8174 183.318L78.2731 175.479L80.4722 179.401L75.7598 220.868L85.5034 182.338L81.1006 173.847L81.4147 162.418L78.0929 167.343L72.6367 158.761Z" fill="#263238" stroke="#263238" stroke-linecap="round" stroke-linejoin="round"/>
<path d="M120.384 121.278L134.217 179.074L130.442 180.054L126.044 167.319L124.473 171.562L126.672 192.788L123.845 195.399L125.73 227.07L143.013 203.238L152.678 223.249L172.493 212.823L186.132 223.398L152.572 168.606L142.75 173.401L120.384 121.278Z" fill="#263238" stroke="#263238" stroke-linecap="round" stroke-linejoin="round"/>
<path d="M126.035 120.951C127.15 116.088 124.258 111.206 119.577 110.048C114.895 108.89 110.197 111.895 109.082 116.758C107.968 121.622 110.86 126.504 115.541 127.662C120.222 128.819 124.921 125.815 126.035 120.951Z" stroke="#263238" stroke-linecap="round" stroke-linejoin="round"/>
<path d="M68.5619 118.863H108.848" stroke="#263238" stroke-linecap="round" stroke-linejoin="round"/>
<path d="M28.9684 118.863H68.5618" stroke="#263238" stroke-width="5" stroke-linecap="round" stroke-linejoin="round"/>
<path d="M76.3882 116.05V121.882" stroke="#263238" stroke-linecap="round" stroke-linejoin="round"/>
<path d="M80.731 116.05V121.882" stroke="#263238" stroke-linecap="round" stroke-linejoin="round"/>
<path d="M85.0737 116.05V121.882" stroke="#263238" stroke-linecap="round" stroke-linejoin="round"/>
<path d="M89.4165 116.05V121.882" stroke="#263238" stroke-linecap="round" stroke-linejoin="round"/>
<path d="M93.7593 116.05V121.882" stroke="#263238" stroke-linecap="round" stroke-linejoin="round"/>
<path d="M98.0975 116.05V121.882" stroke="#263238" stroke-linecap="round" stroke-linejoin="round"/>
<path d="M117.562 67.9544V109.81" stroke="#263238" stroke-linecap="round" stroke-linejoin="round"/>
<path d="M117.562 26.8184V67.9544" stroke="#263238" stroke-width="5" stroke-linecap="round" stroke-linejoin="round"/>
<path d="M120.269 76.0856H114.656" stroke="#263238" stroke-linecap="round" stroke-linejoin="round"/>
<path d="M120.269 80.5976H114.656" stroke="#263238" stroke-linecap="round" stroke-linejoin="round"/>
<path d="M120.269 85.1096H114.656" stroke="#263238" stroke-linecap="round" stroke-linejoin="round"/>
<path d="M120.269 89.6216H114.656" stroke="#263238" stroke-linecap="round" stroke-linejoin="round"/>
<path d="M120.269 94.1336H114.656" stroke="#263238" stroke-linecap="round" stroke-linejoin="round"/>
<path d="M120.269 98.6456H114.656" stroke="#263238" stroke-linecap="round" stroke-linejoin="round"/>
<path d="M166.561 118.863H126.275" stroke="#263238" stroke-linecap="round" stroke-linejoin="round"/>
<path d="M206.155 118.863H166.561" stroke="#263238" stroke-width="5" stroke-linecap="round" stroke-linejoin="round"/>
<path d="M158.735 121.681V115.844" stroke="#263238" stroke-linecap="round" stroke-linejoin="round"/>
<path d="M154.392 121.681V115.844" stroke="#263238" stroke-linecap="round" stroke-linejoin="round"/>
<path d="M150.049 121.681V115.844" stroke="#263238" stroke-linecap="round" stroke-linejoin="round"/>
<path d="M145.707 121.681V115.844" stroke="#263238" stroke-linecap="round" stroke-linejoin="round"/>
<path d="M141.364 121.681V115.844" stroke="#263238" stroke-linecap="round" stroke-linejoin="round"/>
<path d="M137.021 121.681V115.844" stroke="#263238" stroke-linecap="round" stroke-linejoin="round"/>
<path d="M117.562 169.772V127.916" stroke="#263238" stroke-linecap="round" stroke-linejoin="round"/>
<path d="M117.562 210.908V169.772" stroke="#263238" stroke-width="5" stroke-linecap="round" stroke-linejoin="round"/>
<path d="M114.85 161.641H120.468" stroke="#263238" stroke-linecap="round" stroke-linejoin="round"/>
<path d="M114.85 157.129H120.468" stroke="#263238" stroke-linecap="round" stroke-linejoin="round"/>
<path d="M114.85 152.617H120.468" stroke="#263238" stroke-linecap="round" stroke-linejoin="round"/>
<path d="M114.85 148.105H120.468" stroke="#263238" stroke-linecap="round" stroke-linejoin="round"/>
<path d="M114.85 143.593H120.468" stroke="#263238" stroke-linecap="round" stroke-linejoin="round"/>
<path d="M114.85 139.086H120.468" stroke="#263238" stroke-linecap="round" stroke-linejoin="round"/>
<path d="M117.562 18.3704C64.1405 18.3704 20.828 63.38 20.828 118.863C20.828 174.346 64.1405 219.38 117.562 219.38C170.983 219.38 214.286 174.39 214.286 118.887C214.286 63.3848 170.978 18.3704 117.562 18.3704ZM117.562 204.975C101.169 204.975 85.1443 199.925 71.5143 190.463C57.8843 181.001 47.261 167.552 40.9878 151.817C34.7146 136.082 33.0733 118.768 36.2713 102.064C39.4694 85.3595 47.3632 70.0158 58.9546 57.9728C70.5459 45.9299 85.3142 37.7285 101.392 34.4058C117.47 31.0832 134.135 32.7885 149.279 39.3061C164.424 45.8237 177.369 56.8609 186.476 71.022C195.583 85.183 200.444 101.832 200.444 118.863C200.445 130.172 198.302 141.37 194.137 151.818C189.972 162.266 183.867 171.76 176.17 179.757C168.474 187.753 159.337 194.097 149.28 198.425C139.224 202.753 128.446 204.98 117.562 204.98V204.975Z" fill="#263238"/>
</svg>
