<svg width="294" height="243" viewBox="0 0 294 243" fill="none" xmlns="http://www.w3.org/2000/svg">
<path d="M144.275 219.852C195.873 219.852 237.701 217.141 237.701 213.796C237.701 210.452 195.873 207.741 144.275 207.741C92.6774 207.741 50.8491 210.452 50.8491 213.796C50.8491 217.141 92.6774 219.852 144.275 219.852Z" fill="#F5F5F5"/>
<path d="M233.089 78.5327L220.602 110.842C220.459 111.212 220.203 111.546 219.859 111.81C219.514 112.073 219.093 112.258 218.636 112.346C218.18 112.435 217.703 112.423 217.254 112.313C216.804 112.202 216.397 111.997 216.072 111.717L209.579 106.142C209.088 105.723 208.421 105.479 207.717 105.46C207.013 105.44 206.328 105.649 205.805 106.04L151.582 146.864C151.098 147.228 150.472 147.435 149.818 147.447C149.165 147.459 148.528 147.274 148.025 146.928L113.598 123.186C113.1 122.847 112.473 122.665 111.829 122.674C111.185 122.683 110.566 122.882 110.082 123.235L42.4517 172.943L45.0183 153.017C45.0842 152.455 45.4046 151.934 45.9149 151.559L109.736 104.65C110.221 104.299 110.841 104.102 111.485 104.094C112.128 104.086 112.755 104.267 113.252 104.607L147.539 128.304C148.042 128.651 148.678 128.835 149.332 128.823C149.985 128.812 150.612 128.605 151.096 128.241L193.874 96.0142C194.143 95.8117 194.36 95.5665 194.513 95.293C194.665 95.0195 194.749 94.7234 194.761 94.4223C194.772 94.1212 194.711 93.8212 194.579 93.5403C194.448 93.2594 194.25 93.0032 193.997 92.7871L187.61 87.2759C187.276 86.9897 187.039 86.6351 186.925 86.2483C186.81 85.8615 186.821 85.4564 186.957 85.0744C187.093 84.6924 187.349 84.3471 187.698 84.0739C188.047 83.8006 188.478 83.6092 188.946 83.5191L229.895 75.6556C230.363 75.5648 230.85 75.5786 231.309 75.6955C231.767 75.8124 232.18 76.0282 232.505 76.3209C232.83 76.6136 233.055 76.9727 233.158 77.3613C233.261 77.7499 233.237 78.1542 233.089 78.5327Z" fill="#A8DADC"/>
<path opacity="0.1" d="M233.072 78.5861L220.625 110.808C220.479 111.183 220.218 111.52 219.867 111.787C219.517 112.054 219.09 112.241 218.627 112.33C218.164 112.419 217.681 112.407 217.225 112.295C216.769 112.183 216.355 111.976 216.025 111.692L209.579 106.181C209.081 105.755 208.404 105.506 207.689 105.486C206.974 105.466 206.277 105.677 205.746 106.074L151.582 146.864C151.048 147.269 150.342 147.482 149.619 147.457C149.013 147.441 148.431 147.256 147.967 146.932L113.616 123.22C113.108 122.875 112.469 122.69 111.813 122.698C111.156 122.706 110.524 122.906 110.029 123.264L42.4517 172.943L45.1297 152.176L109.713 104.709C110.207 104.349 110.839 104.147 111.496 104.139C112.153 104.131 112.792 104.318 113.299 104.665L127.896 114.74L147.51 128.304C148.021 128.654 148.666 128.84 149.329 128.828C149.991 128.817 150.627 128.608 151.12 128.241L193.88 96.0335C194.154 95.8286 194.375 95.5799 194.531 95.3024C194.686 95.0249 194.773 94.7242 194.785 94.4184C194.797 94.1126 194.734 93.8078 194.601 93.5225C194.468 93.2372 194.266 92.9771 194.009 92.7578L187.674 87.3195C187.336 87.0287 187.097 86.6688 186.982 86.2764C186.866 85.8841 186.878 85.4733 187.016 85.086C187.154 84.6987 187.414 84.3487 187.768 84.0717C188.123 83.7947 188.559 83.6007 189.034 83.5092L229.843 75.6652C230.316 75.577 230.808 75.5939 231.271 75.7142C231.733 75.8344 232.15 76.0538 232.477 76.3501C232.805 76.6465 233.032 77.0093 233.137 77.4019C233.241 77.7944 233.219 78.2029 233.072 78.5861Z" fill="black"/>
<path d="M162.418 199.765H112.426V209.174H162.418V199.765Z" fill="#A8DADC"/>
<path opacity="0.2" d="M118.755 199.765H117.401V209.174H118.755V199.765Z" fill="black"/>
<path opacity="0.2" d="M125.711 199.765H124.357V209.174H125.711V199.765Z" fill="black"/>
<path opacity="0.2" d="M132.661 209.174H131.307V199.765L132.661 199.931V209.174Z" fill="black"/>
<path opacity="0.2" d="M139.616 199.765H138.263V209.174H139.616V199.765Z" fill="black"/>
<path opacity="0.2" d="M146.572 199.765H145.219V209.174H146.572V199.765Z" fill="black"/>
<path opacity="0.2" d="M153.522 199.765H152.168V209.174H153.522V199.765Z" fill="black"/>
<path opacity="0.2" d="M160.478 199.765H159.124V209.174H160.478V199.765Z" fill="black"/>
<path opacity="0.09" d="M162.418 199.765H112.426V201.705H162.418V199.765Z" fill="black"/>
<path d="M170.211 190.352H120.22V199.761H170.211V190.352Z" fill="#A8DADC"/>
<path opacity="0.2" d="M126.548 190.352H125.195V199.761H126.548V190.352Z" fill="black"/>
<path opacity="0.2" d="M133.504 190.352H132.151V199.761H133.504V190.352Z" fill="black"/>
<path opacity="0.2" d="M140.46 190.352H139.106V199.761H140.46V190.352Z" fill="black"/>
<path opacity="0.2" d="M147.41 190.352H146.056V199.761H147.41V190.352Z" fill="black"/>
<path opacity="0.2" d="M154.366 190.352H153.012V199.761H154.366V190.352Z" fill="black"/>
<path opacity="0.2" d="M161.316 190.352H159.962V199.761H161.316V190.352Z" fill="black"/>
<path opacity="0.2" d="M168.272 190.352H166.918V199.761H168.272V190.352Z" fill="black"/>
<path opacity="0.09" d="M170.211 190.352H120.22V192.291H170.211V190.352Z" fill="black"/>
<path d="M163.261 180.943H113.27V190.352H163.261V180.943Z" fill="#A8DADC"/>
<path opacity="0.2" d="M119.599 180.943H118.245V190.352H119.599V180.943Z" fill="black"/>
<path opacity="0.2" d="M126.548 190.356H125.195V180.952L126.548 180.943V190.356Z" fill="black"/>
<path opacity="0.2" d="M133.504 180.943H132.151V190.352H133.504V180.943Z" fill="black"/>
<path opacity="0.2" d="M140.46 180.943H139.106V190.352H140.46V180.943Z" fill="black"/>
<path opacity="0.2" d="M147.41 190.356H146.056V180.943L147.41 180.952V190.356Z" fill="black"/>
<path opacity="0.2" d="M154.366 180.943H153.012V190.352H154.366V180.943Z" fill="black"/>
<path opacity="0.2" d="M161.316 180.943H159.962V190.352H161.316V180.943Z" fill="black"/>
<path opacity="0.09" d="M163.261 180.943H113.27V183.261H163.261V180.943Z" fill="black"/>
<path d="M170.211 171.539H120.22V180.948H170.211V171.539Z" fill="#A8DADC"/>
<path opacity="0.2" d="M126.548 171.539H125.195V180.948H126.548V171.539Z" fill="black"/>
<path opacity="0.2" d="M133.504 171.539H132.151V180.948H133.504V171.539Z" fill="black"/>
<path opacity="0.2" d="M140.46 171.539H139.106V180.948H140.46V171.539Z" fill="black"/>
<path opacity="0.2" d="M147.41 171.539H146.056V180.948H147.41V171.539Z" fill="black"/>
<path opacity="0.2" d="M154.366 171.539H153.012V180.948H154.366V171.539Z" fill="black"/>
<path opacity="0.2" d="M161.316 180.943L159.962 180.952V171.539L161.316 171.709V180.943Z" fill="black"/>
<path opacity="0.2" d="M168.272 171.539H166.918V180.948H168.272V171.539Z" fill="black"/>
<path opacity="0.09" d="M170.211 171.539H120.22V173.478H170.211V171.539Z" fill="black"/>
<path d="M172.409 162.13H122.417V171.539H172.409V162.13Z" fill="#A8DADC"/>
<path opacity="0.2" d="M128.746 162.13H127.392V171.539H128.746V162.13Z" fill="black"/>
<path opacity="0.2" d="M135.696 162.13H134.342V171.539H135.696V162.13Z" fill="black"/>
<path opacity="0.2" d="M142.652 162.13H141.298V171.539H142.652V162.13Z" fill="black"/>
<path opacity="0.2" d="M149.608 162.13H148.254V171.539H149.608V162.13Z" fill="black"/>
<path opacity="0.2" d="M156.558 162.13H155.204V171.539H156.558V162.13Z" fill="black"/>
<path opacity="0.2" d="M163.513 162.13H162.16V171.539H163.513V162.13Z" fill="black"/>
<path opacity="0.2" d="M170.463 162.13H169.11V171.539H170.463V162.13Z" fill="black"/>
<path opacity="0.09" d="M172.409 162.13H122.417V164.069H172.409V162.13Z" fill="black"/>
<path d="M166.461 152.721H116.469V162.13H166.461V152.721Z" fill="#A8DADC"/>
<path opacity="0.2" d="M122.798 152.721H121.445V162.13H122.798V152.721Z" fill="black"/>
<path opacity="0.2" d="M129.754 152.721H128.4V162.13H129.754V152.721Z" fill="black"/>
<path opacity="0.2" d="M136.704 152.721H135.35V162.13H136.704V152.721Z" fill="black"/>
<path opacity="0.2" d="M143.66 152.721H142.306V162.13H143.66V152.721Z" fill="black"/>
<path opacity="0.2" d="M150.61 152.721H149.256V162.13H150.61V152.721Z" fill="black"/>
<path opacity="0.2" d="M157.566 152.721H156.212V162.13H157.566V152.721Z" fill="black"/>
<path opacity="0.2" d="M164.521 152.721H163.168V162.13H164.521V152.721Z" fill="black"/>
<path opacity="0.09" d="M166.461 152.721H116.469V154.66H166.461V152.721Z" fill="black"/>
<path d="M99.9089 199.906H49.9172V209.315H99.9089V199.906Z" fill="#A8DADC"/>
<path opacity="0.2" d="M56.246 199.906H54.8923V209.315H56.246V199.906Z" fill="black"/>
<path opacity="0.2" d="M63.2018 199.906H61.8481V209.315H63.2018V199.906Z" fill="black"/>
<path opacity="0.2" d="M70.1579 199.906H68.8042V209.315H70.1579V199.906Z" fill="black"/>
<path opacity="0.2" d="M77.1078 199.906H75.7542V209.315H77.1078V199.906Z" fill="black"/>
<path opacity="0.2" d="M84.0636 199.906H82.71V209.315H84.0636V199.906Z" fill="black"/>
<path opacity="0.2" d="M91.0136 199.906H89.6599V209.315H91.0136V199.906Z" fill="black"/>
<path opacity="0.2" d="M97.9694 199.906H96.6157V209.315H97.9694V199.906Z" fill="black"/>
<path opacity="0.09" d="M99.9089 199.906H49.9172V201.846H99.9089V199.906Z" fill="black"/>
<path d="M102.27 190.497H52.2788V199.906H102.27V190.497Z" fill="#A8DADC"/>
<path opacity="0.2" d="M58.6076 190.497H57.2539V199.906H58.6076V190.497Z" fill="black"/>
<path opacity="0.2" d="M65.5636 190.497H64.21V199.906H65.5636V190.497Z" fill="black"/>
<path opacity="0.2" d="M72.5136 190.497H71.1599V199.906H72.5136V190.497Z" fill="black"/>
<path opacity="0.2" d="M79.4694 190.497H78.1157V199.906H79.4694V190.497Z" fill="black"/>
<path opacity="0.2" d="M86.4193 190.497H85.0657V199.906H86.4193V190.497Z" fill="black"/>
<path opacity="0.2" d="M93.3752 190.497H92.0215V199.906H93.3752V190.497Z" fill="black"/>
<path opacity="0.2" d="M100.331 190.497H98.9773V199.906H100.331V190.497Z" fill="black"/>
<path opacity="0.09" d="M102.27 190.497H52.2788V192.271H102.27V190.497Z" fill="black"/>
<path d="M99.2058 181.084H49.2141V190.493H99.2058V181.084Z" fill="#A8DADC"/>
<path opacity="0.2" d="M55.5429 181.084H54.1892V190.493H55.5429V181.084Z" fill="black"/>
<path opacity="0.2" d="M62.4987 181.084H61.145V190.493H62.4987V181.084Z" fill="black"/>
<path opacity="0.2" d="M69.4486 181.084H68.095V190.493H69.4486V181.084Z" fill="black"/>
<path opacity="0.2" d="M76.4044 181.084H75.0508V190.493H76.4044V181.084Z" fill="black"/>
<path opacity="0.2" d="M83.3603 181.084H82.0066V190.493H83.3603V181.084Z" fill="black"/>
<path opacity="0.2" d="M90.3102 181.084H88.9565V190.493H90.3102V181.084Z" fill="black"/>
<path opacity="0.2" d="M97.266 181.084H95.9124V190.493H97.266V181.084Z" fill="black"/>
<path opacity="0.09" d="M99.2058 181.084H49.2141V182.858H99.2058V181.084Z" fill="black"/>
<path d="M209.022 176.365H198.07V209.568H209.022V176.365Z" fill="#A8DADC"/>
<g opacity="0.4">
<path d="M209.022 185.2V191.951L198.07 201.034V193.773L209.022 185.2Z" fill="white"/>
<path d="M209.022 180.262V181.409L198.07 190.497V189.35L209.022 180.262Z" fill="white"/>
</g>
<path d="M222.506 187.061H211.554V209.568H222.506V187.061Z" fill="#A8DADC"/>
<g opacity="0.4">
<path d="M222.506 193.695V200.378L211.554 209.456V202.273L222.506 193.695Z" fill="white"/>
<path d="M222.506 190.546V191.829L211.554 200.917V199.624L222.506 190.546Z" fill="white"/>
</g>
<path d="M195.532 160.409H184.58V209.568H195.532V160.409Z" fill="#A8DADC"/>
<g opacity="0.4">
<path d="M195.538 169.638V176.355L184.58 185.438V178.216L195.538 169.638Z" fill="white"/>
<path d="M195.538 165.945V167.199L184.58 176.292V175.028L195.538 165.945Z" fill="white"/>
</g>
<path d="M191.389 164.521C191.225 164.739 190.986 164.913 190.703 165.018C190.419 165.124 190.105 165.158 189.798 165.116C189.492 165.073 189.207 164.956 188.981 164.779C188.755 164.603 188.597 164.374 188.527 164.123C188.457 163.872 188.479 163.61 188.589 163.369C188.699 163.128 188.893 162.919 189.147 162.77C189.4 162.62 189.701 162.537 190.011 162.529C190.322 162.521 190.628 162.591 190.891 162.727C191.243 162.911 191.492 163.203 191.585 163.539C191.679 163.875 191.608 164.228 191.389 164.521Z" fill="#263238"/>
<path d="M204.873 180.306C204.709 180.523 204.47 180.695 204.188 180.799C203.906 180.904 203.593 180.937 203.288 180.894C202.983 180.851 202.701 180.735 202.476 180.559C202.251 180.383 202.094 180.156 202.025 179.906C201.955 179.656 201.977 179.395 202.086 179.155C202.195 178.916 202.388 178.708 202.639 178.559C202.891 178.41 203.19 178.326 203.499 178.318C203.808 178.31 204.113 178.377 204.375 178.513C204.55 178.603 204.702 178.721 204.822 178.86C204.942 178.999 205.028 179.157 205.074 179.323C205.12 179.49 205.126 179.663 205.092 179.831C205.057 180 204.983 180.161 204.873 180.306Z" fill="#263238"/>
<path d="M218.357 190.998C218.193 191.216 217.955 191.388 217.673 191.493C217.391 191.599 217.077 191.632 216.772 191.59C216.467 191.548 216.184 191.431 215.958 191.255C215.733 191.08 215.576 190.852 215.506 190.602C215.436 190.352 215.458 190.091 215.567 189.851C215.677 189.611 215.87 189.403 216.122 189.254C216.373 189.105 216.673 189.021 216.982 189.013C217.291 189.005 217.597 189.074 217.859 189.21C218.034 189.299 218.186 189.417 218.306 189.556C218.425 189.694 218.511 189.851 218.557 190.018C218.604 190.184 218.61 190.356 218.575 190.524C218.541 190.693 218.467 190.854 218.357 190.998Z" fill="#263238"/>
<path d="M217.033 190.298L203.133 201.034L203.543 179.616L190.059 186.532V163.831" stroke="#263238" stroke-miterlimit="10"/>
</svg>
